<?xml version="1.0" encoding="UTF-8" standalone="no"?>
<!-- Created with Inkscape (http://www.inkscape.org/) -->

<svg
   xmlns:dc="http://purl.org/dc/elements/1.1/"
   xmlns:cc="http://creativecommons.org/ns#"
   xmlns:rdf="http://www.w3.org/1999/02/22-rdf-syntax-ns#"
   xmlns:svg="http://www.w3.org/2000/svg"
   xmlns="http://www.w3.org/2000/svg"
   xmlns:sodipodi="http://sodipodi.sourceforge.net/DTD/sodipodi-0.dtd"
   xmlns:inkscape="http://www.inkscape.org/namespaces/inkscape"
   width="151.73692mm"
   height="49.884277mm"
   viewBox="0 0 151.73692 49.884277"
   version="1.1"
   id="svg1356"
   inkscape:version="0.92.5 (2060ec1f9f, 2020-04-08)"
   sodipodi:docname="logo-paths.svg">
  <defs
     id="defs1350" />
  <sodipodi:namedview
     id="base"
     pagecolor="#ffffff"
     bordercolor="#666666"
     borderopacity="1.0"
     inkscape:pageopacity="0.0"
     inkscape:pageshadow="2"
     inkscape:zoom="1.4"
     inkscape:cx="391.5367"
     inkscape:cy="-0.015172367"
     inkscape:document-units="mm"
     inkscape:current-layer="layer1"
     showgrid="false"
     fit-margin-top="2"
     fit-margin-left="2"
     fit-margin-right="2"
     fit-margin-bottom="2"
     inkscape:window-width="1920"
     inkscape:window-height="1029"
     inkscape:window-x="1920"
     inkscape:window-y="203"
     inkscape:window-maximized="1" />
  <metadata
     id="metadata1353">
    <rdf:RDF>
      <cc:Work
         rdf:about="">
        <dc:format>image/svg+xml</dc:format>
        <dc:type
           rdf:resource="http://purl.org/dc/dcmitype/StillImage" />
        <dc:title></dc:title>
      </cc:Work>
    </rdf:RDF>
  </metadata>
  <g
     inkscape:label="Layer 1"
     inkscape:groupmode="layer"
     id="layer1"
     transform="translate(-23.917253,-12.766196)">
    <g
       id="g1926">
      <g
         transform="translate(6.2317604,-21.842377)"
         id="g1104">
        <path
           sodipodi:type="star"
           style="opacity:1;fill:#ffffff;fill-opacity:1;stroke:#666666;stroke-width:2;stroke-linecap:round;stroke-linejoin:round;stroke-miterlimit:4;stroke-dasharray:none;stroke-opacity:1"
           id="path934"
           sodipodi:sides="3"
           sodipodi:cx="45.690731"
           sodipodi:cy="60.901234"
           sodipodi:r1="25.169308"
           sodipodi:r2="13.08804"
           sodipodi:arg1="0.92835566"
           sodipodi:arg2="1.9755532"
           inkscape:flatsided="true"
           inkscape:rounded="0.12"
           inkscape:randomized="0"
           d="M 60.770955,81.052683 C 56.582555,84.187048 21.319193,69.07981 20.698952,63.885366 20.078712,58.690922 50.793646,35.705574 55.602286,37.765652 c 4.80864,2.060078 9.357069,40.152665 5.168669,43.287031 z"
           inkscape:transform-center-x="0.1098382"
           inkscape:transform-center-y="-2.2987584" />
        <g
           id="g874"
           transform="translate(-13.839739,-50.980798)"
           style="fill:#7ba5c8;fill-opacity:1;stroke:#3270a2;stroke-width:1.79999995;stroke-linecap:round;stroke-linejoin:round;stroke-miterlimit:4;stroke-dasharray:none;stroke-opacity:1;paint-order:normal">
          <path
             sodipodi:nodetypes="ccccccccc"
             inkscape:connector-curvature="0"
             id="path821"
             d="m 45.6875,91.841536 v 6.941667 h 9.84375 l 10.470833,26.344017 h 13.552995 l -2.116666,-5.88334 h -5.497006 l -11,-27.402344 z"
             style="color:#000000;font-style:normal;font-variant:normal;font-weight:normal;font-stretch:normal;font-size:medium;line-height:normal;font-family:sans-serif;font-variant-ligatures:normal;font-variant-position:normal;font-variant-caps:normal;font-variant-numeric:normal;font-variant-alternates:normal;font-feature-settings:normal;text-indent:0;text-align:start;text-decoration:none;text-decoration-line:none;text-decoration-style:solid;text-decoration-color:#000000;letter-spacing:normal;word-spacing:normal;text-transform:none;writing-mode:lr-tb;direction:ltr;text-orientation:mixed;dominant-baseline:auto;baseline-shift:baseline;text-anchor:start;white-space:normal;shape-padding:0;clip-rule:nonzero;display:inline;overflow:visible;visibility:visible;opacity:1;isolation:auto;mix-blend-mode:normal;color-interpolation:sRGB;color-interpolation-filters:linearRGB;solid-color:#000000;solid-opacity:1;vector-effect:none;fill:#7ba5c8;fill-opacity:1;fill-rule:nonzero;stroke:#3270a2;stroke-width:1.79999995;stroke-linecap:round;stroke-linejoin:round;stroke-miterlimit:4;stroke-dasharray:none;stroke-dashoffset:0;stroke-opacity:1;paint-order:normal;color-rendering:auto;image-rendering:auto;shape-rendering:auto;text-rendering:auto;enable-background:accumulate" />
          <path
             sodipodi:nodetypes="ccccc"
             inkscape:connector-curvature="0"
             id="path825"
             d="m 54.811233,106.12121 -8.578978,18.97522 h 8.287831 l 4.142998,-9.19443 z"
             style="color:#000000;font-style:normal;font-variant:normal;font-weight:normal;font-stretch:normal;font-size:medium;line-height:normal;font-family:sans-serif;font-variant-ligatures:normal;font-variant-position:normal;font-variant-caps:normal;font-variant-numeric:normal;font-variant-alternates:normal;font-feature-settings:normal;text-indent:0;text-align:start;text-decoration:none;text-decoration-line:none;text-decoration-style:solid;text-decoration-color:#000000;letter-spacing:normal;word-spacing:normal;text-transform:none;writing-mode:lr-tb;direction:ltr;text-orientation:mixed;dominant-baseline:auto;baseline-shift:baseline;text-anchor:start;white-space:normal;shape-padding:0;clip-rule:nonzero;display:inline;overflow:visible;visibility:visible;opacity:1;isolation:auto;mix-blend-mode:normal;color-interpolation:sRGB;color-interpolation-filters:linearRGB;solid-color:#000000;solid-opacity:1;vector-effect:none;fill:#7ba5c8;fill-opacity:1;fill-rule:nonzero;stroke:#3270a2;stroke-width:1.79999995;stroke-linecap:round;stroke-linejoin:round;stroke-miterlimit:4;stroke-dasharray:none;stroke-dashoffset:0;stroke-opacity:1;paint-order:normal;color-rendering:auto;image-rendering:auto;shape-rendering:auto;text-rendering:auto;enable-background:accumulate" />
        </g>
      </g>
      <g
         aria-label="faas-sim"
         style="font-style:normal;font-weight:normal;font-size:27.84043503px;line-height:1.25;font-family:sans-serif;letter-spacing:0px;word-spacing:0px;fill:#4d4d4d;fill-opacity:1;stroke:none;stroke-width:0.69601089"
         id="text1182">
        <path
           d="m 92.042996,27.309929 q -0.08352,0.222723 -0.222723,0.250563 -0.139202,0 -0.250564,-0.05568 -0.473287,-0.139203 -0.863053,-0.306245 -0.361926,-0.167043 -0.974416,-0.167043 -0.918734,0 -1.364181,0.528968 -0.417607,0.501128 -0.723851,1.948831 l -0.389766,1.809628 h 3.563575 q 0.222724,0 0.250564,0.111362 0.02784,0.111362 -0.02784,0.250564 l -0.445447,1.419862 q -0.05568,0.194883 -0.139202,0.250564 -0.05568,0.02784 -0.250564,0.02784 H 86.808995 L 84.526079,45.35053 q -0.222723,1.169299 -0.61249,2.115873 -0.361925,0.946575 -0.974415,1.642586 -0.612489,0.696011 -1.531224,1.057937 -0.890894,0.389766 -2.143713,0.389766 -0.64033,0 -1.169299,-0.08352 -0.528968,-0.05568 -0.835213,-0.167042 -0.278404,-0.111362 -0.306244,-0.222724 -0.02784,-0.08352 0.05568,-0.334085 l 0.473287,-1.447702 q 0.08352,-0.222724 0.222723,-0.222724 0.111362,0 0.250564,0.05568 0.61249,0.139202 1.141458,0.139202 1.197139,0 1.781788,-0.696011 0.61249,-0.696011 0.974415,-2.477798 l 2.310756,-11.720824 h -1.976671 q -0.389766,0 -0.278404,-0.389766 l 0.306245,-1.364181 q 0.08352,-0.306245 0.361926,-0.306245 H 84.6096 l 0.584649,-2.756203 q 0.167043,-0.807373 0.473288,-1.475543 0.306245,-0.696011 0.835213,-1.169298 0.528968,-0.501128 1.3085,-0.779532 0.779533,-0.278405 1.92099,-0.278405 0.723852,0 1.475543,0.139202 0.751692,0.139203 1.22498,0.417607 0.194883,0.111362 0.167042,0.278404 0,0.139202 -0.05568,0.306245 z"
           style="font-style:normal;font-variant:normal;font-weight:normal;font-stretch:normal;font-family:OfficinaSanITCMediumItalic;-inkscape-font-specification:OfficinaSanITCMediumItalic;fill:#4d4d4d;stroke-width:0.69601089"
           id="path1947" />
        <path
           d="m 98.752466,34.186516 q -0.696011,-0.64033 -1.224979,-0.890894 -0.501128,-0.250564 -1.141458,-0.250564 -1.865309,0 -2.895406,2.923246 -0.445447,1.252819 -0.723851,2.617001 -0.278404,1.336341 -0.278404,2.394277 0,2.004511 1.364181,2.004511 0.668171,0 1.308501,-0.334085 0.64033,-0.334085 1.141457,-0.946575 0.528969,-0.612489 0.918735,-1.475543 0.417606,-0.863053 0.64033,-1.893149 l 0.890894,-4.148225 z m 1.280664,6.542502 q -0.167047,0.723852 -0.222728,1.559065 -0.02784,0.835213 0.167043,1.559064 0.05568,0.194883 0.08352,0.389766 0.0278,0.167043 -0.222727,0.278404 l -1.809629,0.696011 q -0.222723,0.08352 -0.306244,0.02784 -0.08352,-0.02784 -0.194883,-0.250564 -0.222724,-0.528968 -0.250564,-1.197139 -0.02784,-0.696011 0,-1.25282 -2.004512,2.756204 -4.48231,2.756204 -1.475543,0 -2.255076,-1.113618 -0.779532,-1.141458 -0.779532,-3.22949 0,-1.25282 0.222724,-2.505639 0.222723,-1.28066 0.66817,-2.449959 0.918734,-2.449958 2.338597,-3.758458 1.447702,-1.336341 3.285171,-1.336341 0.974415,0 1.642586,0.334085 0.696011,0.334085 1.392021,1.169298 L 99.6712,31.569515 q 0.111362,-0.250564 0.33409,-0.250564 h 1.69826 q 0.36193,0 0.27841,0.389766 z"
           style="font-style:normal;font-variant:normal;font-weight:normal;font-stretch:normal;font-family:OfficinaSanITCMediumItalic;-inkscape-font-specification:OfficinaSanITCMediumItalic;fill:#4d4d4d;stroke-width:0.69601089"
           id="path1949" />
        <path
           d="m 112.67263,34.186516 q -0.69601,-0.64033 -1.22498,-0.890894 -0.50113,-0.250564 -1.14146,-0.250564 -1.86531,0 -2.8954,2.923246 -0.44545,1.252819 -0.72385,2.617001 -0.27841,1.336341 -0.27841,2.394277 0,2.004511 1.36418,2.004511 0.66817,0 1.3085,-0.334085 0.64033,-0.334085 1.14146,-0.946575 0.52897,-0.612489 0.91874,-1.475543 0.4176,-0.863053 0.64033,-1.893149 l 0.89089,-4.148225 z m 1.28066,6.542502 q -0.16704,0.723852 -0.22272,1.559065 -0.0278,0.835213 0.16704,1.559064 0.0557,0.194883 0.0835,0.389766 0.0278,0.167043 -0.22272,0.278404 l -1.80963,0.696011 q -0.22273,0.08352 -0.30625,0.02784 -0.0835,-0.02784 -0.19488,-0.250564 -0.22272,-0.528968 -0.25056,-1.197139 -0.0278,-0.696011 0,-1.25282 -2.00451,2.756204 -4.48231,2.756204 -1.47555,0 -2.25508,-1.113618 -0.77953,-1.141458 -0.77953,-3.22949 0,-1.25282 0.22272,-2.505639 0.22273,-1.28066 0.66817,-2.449959 0.91874,-2.449958 2.3386,-3.758458 1.4477,-1.336341 3.28517,-1.336341 0.97442,0 1.64259,0.334085 0.69601,0.334085 1.39202,1.169298 l 0.36192,-0.835213 q 0.11137,-0.250564 0.33409,-0.250564 h 1.69827 q 0.36192,0 0.2784,0.389766 z"
           style="font-style:normal;font-variant:normal;font-weight:normal;font-stretch:normal;font-family:OfficinaSanITCMediumItalic;-inkscape-font-specification:OfficinaSanITCMediumItalic;fill:#4d4d4d;stroke-width:0.69601089"
           id="path1951" />
        <path
           d="m 126.31439,33.546186 q -0.11136,0.222723 -0.30624,0.194883 -0.16705,-0.02784 -0.47329,-0.167043 -0.52897,-0.222723 -1.05794,-0.361925 -0.50113,-0.139202 -0.97441,-0.139202 -1.00226,0 -1.61475,0.528968 -0.58465,0.501128 -0.58465,1.336341 0,0.306245 0.0557,0.528968 0.0835,0.194883 0.27841,0.389766 0.19488,0.194883 0.50113,0.417607 0.30624,0.194883 0.80737,0.501127 l 1.08578,0.696011 q 1.05793,0.696011 1.47554,1.364182 0.44545,0.66817 0.44545,1.753947 0,2.171554 -1.39203,3.452214 -1.36418,1.25282 -3.73061,1.25282 -1.05794,0 -2.11588,-0.278405 -1.05793,-0.278404 -1.86531,-0.723851 -0.25056,-0.139202 -0.30624,-0.222724 -0.0557,-0.111361 0.0557,-0.389766 l 0.50113,-1.364181 q 0.0557,-0.194883 0.2784,-0.167043 0.25057,0.02784 0.41761,0.111362 0.64033,0.361926 1.53122,0.61249 0.8909,0.250564 1.61475,0.250564 1.08577,0 1.7261,-0.556809 0.66817,-0.556809 0.66817,-1.503384 0,-0.334085 -0.0835,-0.556808 -0.0557,-0.250564 -0.25056,-0.445447 -0.16704,-0.222724 -0.47329,-0.417607 -0.2784,-0.222723 -0.72385,-0.501128 l -1.28066,-0.779532 q -1.0301,-0.64033 -1.4477,-1.28066 -0.38977,-0.66817 -0.38977,-1.670426 0,-1.002256 0.33409,-1.837469 0.36192,-0.835213 1.00225,-1.419862 0.66817,-0.612489 1.55907,-0.918734 0.91873,-0.334085 2.00451,-0.334085 0.89089,0 1.72611,0.222723 0.86305,0.194883 1.39202,0.556809 0.36192,0.222723 0.22272,0.556809 z"
           style="font-style:normal;font-variant:normal;font-weight:normal;font-stretch:normal;font-family:OfficinaSanITCMediumItalic;-inkscape-font-specification:OfficinaSanITCMediumItalic;fill:#4d4d4d;stroke-width:0.69601089"
           id="path1953" />
        <path
           d="m 135.00058,38.752347 q -0.0835,0.389766 -0.47328,0.389766 h -5.9857 q -0.30624,0 -0.33408,-0.167042 -0.0278,-0.167043 0.0278,-0.417607 l 0.36192,-1.698266 q 0.0557,-0.222724 0.13921,-0.278405 0.0835,-0.08352 0.30624,-0.08352 h 5.98569 q 0.30625,0 0.33409,0.167043 0.0557,0.139202 0,0.361925 z"
           style="font-style:normal;font-variant:normal;font-weight:normal;font-stretch:normal;font-family:OfficinaSanITCMediumItalic;-inkscape-font-specification:OfficinaSanITCMediumItalic;fill:#4d4d4d;stroke-width:0.69601089"
           id="path1955" />
        <path
           d="m 145.66343,33.546186 q -0.11136,0.222723 -0.30624,0.194883 -0.16704,-0.02784 -0.47329,-0.167043 -0.52897,-0.222723 -1.05794,-0.361925 -0.50112,-0.139202 -0.97441,-0.139202 -1.00226,0 -1.61475,0.528968 -0.58465,0.501128 -0.58465,1.336341 0,0.306245 0.0557,0.528968 0.0835,0.194883 0.27841,0.389766 0.19488,0.194883 0.50113,0.417607 0.30624,0.194883 0.80737,0.501127 l 1.08578,0.696011 q 1.05793,0.696011 1.47554,1.364182 0.44545,0.66817 0.44545,1.753947 0,2.171554 -1.39202,3.452214 -1.36419,1.25282 -3.73062,1.25282 -1.05794,0 -2.11588,-0.278405 -1.05793,-0.278404 -1.86531,-0.723851 -0.25056,-0.139202 -0.30624,-0.222724 -0.0557,-0.111361 0.0557,-0.389766 l 0.50113,-1.364181 q 0.0557,-0.194883 0.2784,-0.167043 0.25057,0.02784 0.41761,0.111362 0.64033,0.361926 1.53122,0.61249 0.8909,0.250564 1.61475,0.250564 1.08578,0 1.72611,-0.556809 0.66817,-0.556809 0.66817,-1.503384 0,-0.334085 -0.0835,-0.556808 -0.0557,-0.250564 -0.25056,-0.445447 -0.16704,-0.222724 -0.47329,-0.417607 -0.2784,-0.222723 -0.72385,-0.501128 l -1.28066,-0.779532 q -1.03009,-0.64033 -1.4477,-1.28066 -0.38977,-0.66817 -0.38977,-1.670426 0,-1.002256 0.33409,-1.837469 0.36192,-0.835213 1.00225,-1.419862 0.66817,-0.612489 1.55907,-0.918734 0.91873,-0.334085 2.00451,-0.334085 0.89089,0 1.72611,0.222723 0.86305,0.194883 1.39202,0.556809 0.36192,0.222723 0.22272,0.556809 z"
           style="font-style:normal;font-variant:normal;font-weight:normal;font-stretch:normal;font-family:OfficinaSanITCMediumItalic;-inkscape-font-specification:OfficinaSanITCMediumItalic;fill:#4d4d4d;stroke-width:0.69601089"
           id="path1957" />
        <path
           d="m 150.64685,44.570998 q -0.0557,0.306245 -0.36193,0.306245 h -2.00451 q -0.25056,0 -0.30624,-0.08352 -0.0557,-0.08352 0,-0.306245 l 2.39427,-11.108334 h -2.19939 q -0.25057,0 -0.30625,-0.08352 -0.0278,-0.111362 0.0278,-0.334085 l 0.27841,-1.336341 q 0.0557,-0.167043 0.11136,-0.222724 0.0557,-0.08352 0.25056,-0.08352 h 4.56584 q 0.36192,0 0.2784,0.417607 z m 4.23174,-17.790038 q 0,0.807373 -0.55681,1.392022 -0.5568,0.556809 -1.36418,0.556809 -0.80737,0 -1.39202,-0.556809 -0.55681,-0.584649 -0.55681,-1.392022 0,-0.807372 0.55681,-1.364181 0.58465,-0.556809 1.39202,-0.556809 0.80738,0 1.36418,0.556809 0.55681,0.556809 0.55681,1.364181 z"
           style="font-style:normal;font-variant:normal;font-weight:normal;font-stretch:normal;font-family:OfficinaSanITCMediumItalic;-inkscape-font-specification:OfficinaSanITCMediumItalic;fill:#4d4d4d;stroke-width:0.69601089"
           id="path1959" />
        <path
           d="m 171.4158,44.570998 q -0.0557,0.306245 -0.36192,0.306245 h -2.00451 q -0.30625,0 -0.30625,-0.167043 0,-0.194883 0.0557,-0.389766 l 1.89315,-8.519173 q 0.0835,-0.334085 0.1392,-0.751692 0.0835,-0.445446 0.0278,-0.835213 -0.0278,-0.417606 -0.25056,-0.69601 -0.19488,-0.278405 -0.72385,-0.278405 -0.91874,0 -1.58691,0.417607 -0.64033,0.389766 -1.11361,1.030096 -0.44545,0.64033 -0.7517,1.419862 -0.2784,0.751692 -0.4176,1.447703 l -1.47555,7.015789 q -0.0557,0.306245 -0.38976,0.306245 h -2.00451 q -0.30625,0 -0.30625,-0.139202 0.0278,-0.167043 0.0835,-0.361926 l 1.94883,-8.96462 q 0.0835,-0.334085 0.11137,-0.696011 0.0557,-0.389766 -0.0278,-0.696011 -0.0557,-0.334085 -0.27841,-0.556808 -0.22272,-0.222724 -0.69601,-0.222724 -0.77953,0 -1.41986,0.389766 -0.61249,0.361926 -1.08578,0.946575 -0.44545,0.584649 -0.75169,1.336341 -0.30625,0.723851 -0.47329,1.419862 l -1.61474,7.238513 q -0.0557,0.306245 -0.38977,0.306245 h -1.97667 q -0.30624,0 -0.30624,-0.167043 0,-0.167042 0.0557,-0.334085 l 2.11587,-9.799833 q 0.0835,-0.445447 0.0835,-1.085777 0,-0.64033 -0.1392,-1.085777 -0.1392,-0.445447 -0.0557,-0.528968 0.11136,-0.111362 0.30624,-0.194883 l 1.41986,-0.61249 q 0.27841,-0.139202 0.44545,-0.08352 0.16704,0.02784 0.30625,0.445447 0.11136,0.306245 0.1392,0.723851 0.0557,0.389766 0.0557,0.807373 0,0.167042 -0.0278,0.361926 0,0.167042 0,0.334085 1.97667,-2.756203 4.56583,-2.756203 1.3085,0 1.80963,0.751691 0.52897,0.751692 0.52897,1.976671 1.14145,-1.475543 2.17155,-2.088032 1.0301,-0.64033 2.36644,-0.64033 1.05793,0 1.61474,0.445447 0.55681,0.445447 0.75169,1.113617 0.22273,0.66817 0.16705,1.475543 -0.0278,0.807373 -0.19489,1.503384 z"
           style="font-style:normal;font-variant:normal;font-weight:normal;font-stretch:normal;font-family:OfficinaSanITCMediumItalic;-inkscape-font-specification:OfficinaSanITCMediumItalic;fill:#4d4d4d;stroke-width:0.69601089"
           id="path1961" />
      </g>
    </g>
  </g>
</svg>
